<svg xmlns="http://www.w3.org/2000/svg" xmlns:xlink="http://www.w3.org/1999/xlink" width="420" zoomAndPan="magnify" viewBox="0 0 315 314.999992" height="420" preserveAspectRatio="xMidYMid meet" version="1.0"><defs><g/><clipPath id="28a94a9051"><path d="M 10.050781 117.253906 L 55 117.253906 L 55 174.902344 L 10.050781 174.902344 Z M 10.050781 117.253906 " clip-rule="nonzero"/></clipPath><clipPath id="e49b0f026b"><path d="M 60 117.253906 L 104.550781 117.253906 L 104.550781 174.902344 L 60 174.902344 Z M 60 117.253906 " clip-rule="nonzero"/></clipPath></defs><g clip-path="url(#28a94a9051)"><path fill="#0cdfb3" d="M 48.289062 162.789062 C 39.0625 162.789062 31.558594 155.285156 31.558594 146.058594 C 31.558594 136.832031 39.0625 129.328125 48.289062 129.328125 C 51.648438 129.328125 54.371094 126.605469 54.371094 123.242188 C 54.371094 119.882812 51.648438 117.160156 48.289062 117.160156 C 35.097656 117.160156 23.945312 126.039062 20.492188 138.136719 L 17.972656 138.136719 C 13.59375 138.136719 10.050781 141.683594 10.050781 146.058594 C 10.050781 150.433594 13.59375 153.980469 17.972656 153.980469 L 20.492188 153.980469 C 23.945312 166.078125 35.097656 174.960938 48.289062 174.960938 C 51.648438 174.960938 54.371094 172.234375 54.371094 168.875 C 54.371094 165.515625 51.648438 162.789062 48.289062 162.789062 Z M 48.289062 162.789062 " fill-opacity="1" fill-rule="nonzero"/></g><g clip-path="url(#e49b0f026b)"><path fill="#0cdfb3" d="M 96.703125 138.136719 L 94.066406 138.136719 C 90.613281 126.039062 79.457031 117.160156 66.269531 117.160156 C 62.910156 117.160156 60.183594 119.882812 60.183594 123.242188 C 60.183594 126.605469 62.910156 129.328125 66.269531 129.328125 C 75.496094 129.328125 83 136.832031 83 146.058594 C 83 155.285156 75.496094 162.789062 66.269531 162.789062 C 62.910156 162.789062 60.183594 165.515625 60.183594 168.875 C 60.183594 172.234375 62.910156 174.960938 66.269531 174.960938 C 79.457031 174.960938 90.613281 166.078125 94.066406 153.980469 L 96.703125 153.980469 C 101.078125 153.980469 104.625 150.4375 104.625 146.058594 C 104.625 141.683594 101.078125 138.136719 96.703125 138.136719 Z M 96.703125 138.136719 " fill-opacity="1" fill-rule="nonzero"/></g><path fill="#ffffff" d="M 65.203125 153.980469 C 69.578125 153.980469 73.125 150.433594 73.125 146.058594 C 73.125 141.683594 69.578125 138.136719 65.203125 138.136719 L 49.355469 138.136719 C 44.980469 138.136719 41.433594 141.683594 41.433594 146.058594 C 41.433594 150.4375 44.980469 153.980469 49.355469 153.980469 Z M 65.203125 153.980469 " fill-opacity="1" fill-rule="nonzero"/><g fill="#0cdfb3" fill-opacity="1"><g transform="translate(116.742973, 167.336368)"><g><path d="M 5.15625 -1.953125 C 5.15625 -1.304688 4.921875 -0.800781 4.453125 -0.4375 C 3.984375 -0.0820312 3.347656 0.09375 2.546875 0.09375 C 1.671875 0.09375 1 -0.015625 0.53125 -0.234375 L 0.53125 -1.0625 C 0.832031 -0.9375 1.160156 -0.835938 1.515625 -0.765625 C 1.867188 -0.691406 2.222656 -0.65625 2.578125 -0.65625 C 3.140625 -0.65625 3.566406 -0.757812 3.859375 -0.96875 C 4.148438 -1.1875 4.296875 -1.488281 4.296875 -1.875 C 4.296875 -2.125 4.242188 -2.332031 4.140625 -2.5 C 4.035156 -2.664062 3.863281 -2.816406 3.625 -2.953125 C 3.382812 -3.085938 3.019531 -3.242188 2.53125 -3.421875 C 1.851562 -3.660156 1.363281 -3.945312 1.0625 -4.28125 C 0.769531 -4.625 0.625 -5.0625 0.625 -5.59375 C 0.625 -6.164062 0.835938 -6.617188 1.265625 -6.953125 C 1.691406 -7.285156 2.253906 -7.453125 2.953125 -7.453125 C 3.679688 -7.453125 4.351562 -7.316406 4.96875 -7.046875 L 4.703125 -6.3125 C 4.097656 -6.5625 3.507812 -6.6875 2.9375 -6.6875 C 2.476562 -6.6875 2.125 -6.585938 1.875 -6.390625 C 1.625 -6.203125 1.5 -5.9375 1.5 -5.59375 C 1.5 -5.332031 1.546875 -5.117188 1.640625 -4.953125 C 1.734375 -4.796875 1.890625 -4.648438 2.109375 -4.515625 C 2.328125 -4.378906 2.664062 -4.226562 3.125 -4.0625 C 3.894531 -3.789062 4.425781 -3.492188 4.71875 -3.171875 C 5.007812 -2.859375 5.15625 -2.453125 5.15625 -1.953125 Z M 5.15625 -1.953125 "/></g></g></g><g fill="#0cdfb3" fill-opacity="1"><g transform="translate(126.178584, 167.336368)"><g><path d="M 4.28125 0 L 4.109375 -0.78125 L 4.0625 -0.78125 C 3.789062 -0.4375 3.515625 -0.203125 3.234375 -0.078125 C 2.960938 0.0351562 2.625 0.09375 2.21875 0.09375 C 1.675781 0.09375 1.25 -0.046875 0.9375 -0.328125 C 0.625 -0.609375 0.46875 -1.003906 0.46875 -1.515625 C 0.46875 -2.628906 1.359375 -3.210938 3.140625 -3.265625 L 4.078125 -3.296875 L 4.078125 -3.640625 C 4.078125 -4.078125 3.984375 -4.394531 3.796875 -4.59375 C 3.609375 -4.800781 3.3125 -4.90625 2.90625 -4.90625 C 2.445312 -4.90625 1.925781 -4.765625 1.34375 -4.484375 L 1.09375 -5.125 C 1.363281 -5.269531 1.660156 -5.382812 1.984375 -5.46875 C 2.304688 -5.550781 2.628906 -5.59375 2.953125 -5.59375 C 3.609375 -5.59375 4.09375 -5.445312 4.40625 -5.15625 C 4.726562 -4.863281 4.890625 -4.398438 4.890625 -3.765625 L 4.890625 0 Z M 2.390625 -0.59375 C 2.910156 -0.59375 3.316406 -0.734375 3.609375 -1.015625 C 3.910156 -1.296875 4.0625 -1.695312 4.0625 -2.21875 L 4.0625 -2.703125 L 3.21875 -2.671875 C 2.5625 -2.648438 2.082031 -2.546875 1.78125 -2.359375 C 1.488281 -2.179688 1.34375 -1.898438 1.34375 -1.515625 C 1.34375 -1.210938 1.429688 -0.984375 1.609375 -0.828125 C 1.796875 -0.671875 2.054688 -0.59375 2.390625 -0.59375 Z M 2.390625 -0.59375 "/></g></g></g><g fill="#0cdfb3" fill-opacity="1"><g transform="translate(135.689656, 167.336368)"><g><path d="M 4.28125 0 L 4.109375 -0.78125 L 4.0625 -0.78125 C 3.789062 -0.4375 3.515625 -0.203125 3.234375 -0.078125 C 2.960938 0.0351562 2.625 0.09375 2.21875 0.09375 C 1.675781 0.09375 1.25 -0.046875 0.9375 -0.328125 C 0.625 -0.609375 0.46875 -1.003906 0.46875 -1.515625 C 0.46875 -2.628906 1.359375 -3.210938 3.140625 -3.265625 L 4.078125 -3.296875 L 4.078125 -3.640625 C 4.078125 -4.078125 3.984375 -4.394531 3.796875 -4.59375 C 3.609375 -4.800781 3.3125 -4.90625 2.90625 -4.90625 C 2.445312 -4.90625 1.925781 -4.765625 1.34375 -4.484375 L 1.09375 -5.125 C 1.363281 -5.269531 1.660156 -5.382812 1.984375 -5.46875 C 2.304688 -5.550781 2.628906 -5.59375 2.953125 -5.59375 C 3.609375 -5.59375 4.09375 -5.445312 4.40625 -5.15625 C 4.726562 -4.863281 4.890625 -4.398438 4.890625 -3.765625 L 4.890625 0 Z M 2.390625 -0.59375 C 2.910156 -0.59375 3.316406 -0.734375 3.609375 -1.015625 C 3.910156 -1.296875 4.0625 -1.695312 4.0625 -2.21875 L 4.0625 -2.703125 L 3.21875 -2.671875 C 2.5625 -2.648438 2.082031 -2.546875 1.78125 -2.359375 C 1.488281 -2.179688 1.34375 -1.898438 1.34375 -1.515625 C 1.34375 -1.210938 1.429688 -0.984375 1.609375 -0.828125 C 1.796875 -0.671875 2.054688 -0.59375 2.390625 -0.59375 Z M 2.390625 -0.59375 "/></g></g></g><g fill="#0cdfb3" fill-opacity="1"><g transform="translate(145.200727, 167.336368)"><g><path d="M 5.15625 -1.953125 C 5.15625 -1.304688 4.921875 -0.800781 4.453125 -0.4375 C 3.984375 -0.0820312 3.347656 0.09375 2.546875 0.09375 C 1.671875 0.09375 1 -0.015625 0.53125 -0.234375 L 0.53125 -1.0625 C 0.832031 -0.9375 1.160156 -0.835938 1.515625 -0.765625 C 1.867188 -0.691406 2.222656 -0.65625 2.578125 -0.65625 C 3.140625 -0.65625 3.566406 -0.757812 3.859375 -0.96875 C 4.148438 -1.1875 4.296875 -1.488281 4.296875 -1.875 C 4.296875 -2.125 4.242188 -2.332031 4.140625 -2.5 C 4.035156 -2.664062 3.863281 -2.816406 3.625 -2.953125 C 3.382812 -3.085938 3.019531 -3.242188 2.53125 -3.421875 C 1.851562 -3.660156 1.363281 -3.945312 1.0625 -4.28125 C 0.769531 -4.625 0.625 -5.0625 0.625 -5.59375 C 0.625 -6.164062 0.835938 -6.617188 1.265625 -6.953125 C 1.691406 -7.285156 2.253906 -7.453125 2.953125 -7.453125 C 3.679688 -7.453125 4.351562 -7.316406 4.96875 -7.046875 L 4.703125 -6.3125 C 4.097656 -6.5625 3.507812 -6.6875 2.9375 -6.6875 C 2.476562 -6.6875 2.125 -6.585938 1.875 -6.390625 C 1.625 -6.203125 1.5 -5.9375 1.5 -5.59375 C 1.5 -5.332031 1.546875 -5.117188 1.640625 -4.953125 C 1.734375 -4.796875 1.890625 -4.648438 2.109375 -4.515625 C 2.328125 -4.378906 2.664062 -4.226562 3.125 -4.0625 C 3.894531 -3.789062 4.425781 -3.492188 4.71875 -3.171875 C 5.007812 -2.859375 5.15625 -2.453125 5.15625 -1.953125 Z M 5.15625 -1.953125 "/></g></g></g><g fill="#0cdfb3" fill-opacity="1"><g transform="translate(154.636338, 167.336368)"><g/></g></g><g fill="#0cdfb3" fill-opacity="1"><g transform="translate(161.093789, 167.336368)"><g><path d="M 3.265625 0 L 2.421875 0 L 2.421875 -6.59375 L 0.09375 -6.59375 L 0.09375 -7.34375 L 5.59375 -7.34375 L 5.59375 -6.59375 L 3.265625 -6.59375 Z M 3.265625 0 "/></g></g></g><g fill="#0cdfb3" fill-opacity="1"><g transform="translate(170.574674, 167.336368)"><g><path d="M 7.390625 -3.6875 C 7.390625 -2.507812 7.09375 -1.582031 6.5 -0.90625 C 5.90625 -0.238281 5.078125 0.09375 4.015625 0.09375 C 2.929688 0.09375 2.09375 -0.234375 1.5 -0.890625 C 0.914062 -1.554688 0.625 -2.492188 0.625 -3.703125 C 0.625 -4.890625 0.914062 -5.8125 1.5 -6.46875 C 2.09375 -7.132812 2.9375 -7.46875 4.03125 -7.46875 C 5.082031 -7.46875 5.90625 -7.128906 6.5 -6.453125 C 7.09375 -5.785156 7.390625 -4.863281 7.390625 -3.6875 Z M 1.53125 -3.6875 C 1.53125 -2.6875 1.742188 -1.929688 2.171875 -1.421875 C 2.597656 -0.910156 3.210938 -0.65625 4.015625 -0.65625 C 4.828125 -0.65625 5.441406 -0.910156 5.859375 -1.421875 C 6.273438 -1.929688 6.484375 -2.6875 6.484375 -3.6875 C 6.484375 -4.675781 6.273438 -5.425781 5.859375 -5.9375 C 5.453125 -6.445312 4.84375 -6.703125 4.03125 -6.703125 C 3.21875 -6.703125 2.597656 -6.441406 2.171875 -5.921875 C 1.742188 -5.410156 1.53125 -4.664062 1.53125 -3.6875 Z M 1.53125 -3.6875 "/></g></g></g><g fill="#0cdfb3" fill-opacity="1"><g transform="translate(182.379731, 167.336368)"><g/></g></g><g fill="#0cdfb3" fill-opacity="1"><g transform="translate(188.837182, 167.336368)"><g><path d="M 5.15625 -1.953125 C 5.15625 -1.304688 4.921875 -0.800781 4.453125 -0.4375 C 3.984375 -0.0820312 3.347656 0.09375 2.546875 0.09375 C 1.671875 0.09375 1 -0.015625 0.53125 -0.234375 L 0.53125 -1.0625 C 0.832031 -0.9375 1.160156 -0.835938 1.515625 -0.765625 C 1.867188 -0.691406 2.222656 -0.65625 2.578125 -0.65625 C 3.140625 -0.65625 3.566406 -0.757812 3.859375 -0.96875 C 4.148438 -1.1875 4.296875 -1.488281 4.296875 -1.875 C 4.296875 -2.125 4.242188 -2.332031 4.140625 -2.5 C 4.035156 -2.664062 3.863281 -2.816406 3.625 -2.953125 C 3.382812 -3.085938 3.019531 -3.242188 2.53125 -3.421875 C 1.851562 -3.660156 1.363281 -3.945312 1.0625 -4.28125 C 0.769531 -4.625 0.625 -5.0625 0.625 -5.59375 C 0.625 -6.164062 0.835938 -6.617188 1.265625 -6.953125 C 1.691406 -7.285156 2.253906 -7.453125 2.953125 -7.453125 C 3.679688 -7.453125 4.351562 -7.316406 4.96875 -7.046875 L 4.703125 -6.3125 C 4.097656 -6.5625 3.507812 -6.6875 2.9375 -6.6875 C 2.476562 -6.6875 2.125 -6.585938 1.875 -6.390625 C 1.625 -6.203125 1.5 -5.9375 1.5 -5.59375 C 1.5 -5.332031 1.546875 -5.117188 1.640625 -4.953125 C 1.734375 -4.796875 1.890625 -4.648438 2.109375 -4.515625 C 2.328125 -4.378906 2.664062 -4.226562 3.125 -4.0625 C 3.894531 -3.789062 4.425781 -3.492188 4.71875 -3.171875 C 5.007812 -2.859375 5.15625 -2.453125 5.15625 -1.953125 Z M 5.15625 -1.953125 "/></g></g></g><g fill="#0cdfb3" fill-opacity="1"><g transform="translate(198.272791, 167.336368)"><g><path d="M 6.5625 -7.34375 L 6.5625 -2.59375 C 6.5625 -1.757812 6.304688 -1.101562 5.796875 -0.625 C 5.296875 -0.144531 4.601562 0.09375 3.71875 0.09375 C 2.832031 0.09375 2.144531 -0.144531 1.65625 -0.625 C 1.175781 -1.101562 0.9375 -1.765625 0.9375 -2.609375 L 0.9375 -7.34375 L 1.796875 -7.34375 L 1.796875 -2.546875 C 1.796875 -1.941406 1.960938 -1.472656 2.296875 -1.140625 C 2.628906 -0.816406 3.117188 -0.65625 3.765625 -0.65625 C 4.390625 -0.65625 4.867188 -0.816406 5.203125 -1.140625 C 5.535156 -1.472656 5.703125 -1.945312 5.703125 -2.5625 L 5.703125 -7.34375 Z M 6.5625 -7.34375 "/></g></g></g><g fill="#0cdfb3" fill-opacity="1"><g transform="translate(209.554657, 167.336368)"><g><path d="M 5.671875 -5.203125 C 5.671875 -4.460938 5.414062 -3.890625 4.90625 -3.484375 C 4.394531 -3.085938 3.671875 -2.890625 2.734375 -2.890625 L 1.859375 -2.890625 L 1.859375 0 L 1.015625 0 L 1.015625 -7.34375 L 2.921875 -7.34375 C 4.753906 -7.34375 5.671875 -6.628906 5.671875 -5.203125 Z M 1.859375 -3.625 L 2.640625 -3.625 C 3.390625 -3.625 3.929688 -3.742188 4.265625 -3.984375 C 4.609375 -4.234375 4.78125 -4.628906 4.78125 -5.171875 C 4.78125 -5.648438 4.617188 -6.007812 4.296875 -6.25 C 3.984375 -6.488281 3.492188 -6.609375 2.828125 -6.609375 L 1.859375 -6.609375 Z M 1.859375 -3.625 "/></g></g></g><g fill="#0cdfb3" fill-opacity="1"><g transform="translate(219.53861, 167.336368)"><g><path d="M 5.671875 -5.203125 C 5.671875 -4.460938 5.414062 -3.890625 4.90625 -3.484375 C 4.394531 -3.085938 3.671875 -2.890625 2.734375 -2.890625 L 1.859375 -2.890625 L 1.859375 0 L 1.015625 0 L 1.015625 -7.34375 L 2.921875 -7.34375 C 4.753906 -7.34375 5.671875 -6.628906 5.671875 -5.203125 Z M 1.859375 -3.625 L 2.640625 -3.625 C 3.390625 -3.625 3.929688 -3.742188 4.265625 -3.984375 C 4.609375 -4.234375 4.78125 -4.628906 4.78125 -5.171875 C 4.78125 -5.648438 4.617188 -6.007812 4.296875 -6.25 C 3.984375 -6.488281 3.492188 -6.609375 2.828125 -6.609375 L 1.859375 -6.609375 Z M 1.859375 -3.625 "/></g></g></g><g fill="#0cdfb3" fill-opacity="1"><g transform="translate(229.522563, 167.336368)"><g><path d="M 1.015625 0 L 1.015625 -7.34375 L 1.859375 -7.34375 L 1.859375 -0.78125 L 5.109375 -0.78125 L 5.109375 0 Z M 1.015625 0 "/></g></g></g><g fill="#0cdfb3" fill-opacity="1"><g transform="translate(238.651301, 167.336368)"><g><path d="M 2.875 -3.671875 L 4.84375 -7.34375 L 5.765625 -7.34375 L 3.3125 -2.84375 L 3.3125 0 L 2.453125 0 L 2.453125 -2.8125 L 0 -7.34375 L 0.9375 -7.34375 Z M 2.875 -3.671875 "/></g></g></g><g fill="#0cdfb3" fill-opacity="1"><g transform="translate(248.202615, 167.336368)"><g/></g></g><g fill="#0cdfb3" fill-opacity="1"><g transform="translate(254.660074, 167.336368)"><g><path d="M 4.15625 -6.6875 C 3.351562 -6.6875 2.71875 -6.414062 2.25 -5.875 C 1.78125 -5.34375 1.546875 -4.609375 1.546875 -3.671875 C 1.546875 -2.710938 1.769531 -1.96875 2.21875 -1.4375 C 2.664062 -0.914062 3.304688 -0.65625 4.140625 -0.65625 C 4.660156 -0.65625 5.25 -0.75 5.90625 -0.9375 L 5.90625 -0.1875 C 5.394531 0 4.765625 0.09375 4.015625 0.09375 C 2.929688 0.09375 2.09375 -0.234375 1.5 -0.890625 C 0.914062 -1.546875 0.625 -2.476562 0.625 -3.6875 C 0.625 -4.445312 0.765625 -5.109375 1.046875 -5.671875 C 1.335938 -6.242188 1.75 -6.679688 2.28125 -6.984375 C 2.8125 -7.296875 3.441406 -7.453125 4.171875 -7.453125 C 4.941406 -7.453125 5.613281 -7.3125 6.1875 -7.03125 L 5.828125 -6.296875 C 5.273438 -6.554688 4.71875 -6.6875 4.15625 -6.6875 Z M 4.15625 -6.6875 "/></g></g></g><g fill="#0cdfb3" fill-opacity="1"><g transform="translate(264.940837, 167.336368)"><g><path d="M 6.59375 0 L 5.734375 0 L 5.734375 -3.453125 L 1.859375 -3.453125 L 1.859375 0 L 1.015625 0 L 1.015625 -7.34375 L 1.859375 -7.34375 L 1.859375 -4.21875 L 5.734375 -4.21875 L 5.734375 -7.34375 L 6.59375 -7.34375 Z M 6.59375 0 "/></g></g></g><g fill="#0cdfb3" fill-opacity="1"><g transform="translate(276.323316, 167.336368)"><g><path d="M 5.625 0 L 4.71875 -2.34375 L 1.765625 -2.34375 L 0.859375 0 L 0 0 L 2.90625 -7.375 L 3.625 -7.375 L 6.515625 0 Z M 4.453125 -3.109375 L 3.59375 -5.390625 C 3.476562 -5.671875 3.363281 -6.023438 3.25 -6.453125 C 3.175781 -6.128906 3.070312 -5.773438 2.9375 -5.390625 L 2.078125 -3.109375 Z M 4.453125 -3.109375 "/></g></g></g><g fill="#0cdfb3" fill-opacity="1"><g transform="translate(286.624201, 167.336368)"><g><path d="M 1.015625 0 L 1.015625 -7.34375 L 1.859375 -7.34375 L 1.859375 0 Z M 1.015625 0 "/></g></g></g><g fill="#0cdfb3" fill-opacity="1"><g transform="translate(293.277848, 167.336368)"><g><path d="M 6.75 0 L 5.78125 0 L 1.765625 -6.171875 L 1.71875 -6.171875 C 1.769531 -5.441406 1.796875 -4.773438 1.796875 -4.171875 L 1.796875 0 L 1.015625 0 L 1.015625 -7.34375 L 1.96875 -7.34375 L 5.984375 -1.203125 L 6.015625 -1.203125 C 6.015625 -1.296875 6 -1.585938 5.96875 -2.078125 C 5.945312 -2.566406 5.941406 -2.914062 5.953125 -3.125 L 5.953125 -7.34375 L 6.75 -7.34375 Z M 6.75 0 "/></g></g></g><g fill="#f7fafc" fill-opacity="1"><g transform="translate(114.314634, 155.164536)"><g><path d="M 20.296875 0 L 4.828125 0 C 4.117188 0 3.46875 -0.171875 2.875 -0.515625 C 2.289062 -0.867188 1.828125 -1.335938 1.484375 -1.921875 C 1.140625 -2.503906 0.96875 -3.15625 0.96875 -3.875 L 0.96875 -15.46875 C 0.96875 -16.175781 1.140625 -16.820312 1.484375 -17.40625 C 1.828125 -18 2.289062 -18.46875 2.875 -18.8125 C 3.46875 -19.164062 4.117188 -19.34375 4.828125 -19.34375 L 20.296875 -19.34375 L 20.296875 -15.46875 L 4.828125 -15.46875 L 4.828125 -3.875 L 20.296875 -3.875 Z M 20.296875 0 "/></g></g></g><g fill="#f7fafc" fill-opacity="1"><g transform="translate(135.099471, 155.164536)"><g><path d="M 16.4375 -11.609375 L 16.4375 -19.34375 L 20.296875 -19.34375 L 20.296875 0 L 16.4375 0 L 16.4375 -7.734375 L 4.828125 -7.734375 L 4.828125 0 L 0.96875 0 L 0.96875 -19.34375 L 4.828125 -19.34375 L 4.828125 -11.609375 Z M 16.4375 -11.609375 "/></g></g></g><g fill="#f7fafc" fill-opacity="1"><g transform="translate(155.884309, 155.164536)"><g><path d="M 4.828125 -19.34375 L 16.4375 -19.34375 C 17.144531 -19.34375 17.789062 -19.164062 18.375 -18.8125 C 18.96875 -18.46875 19.4375 -18 19.78125 -17.40625 C 20.125 -16.820312 20.296875 -16.175781 20.296875 -15.46875 L 20.296875 0 L 16.4375 0 L 16.4375 -7.734375 L 4.828125 -7.734375 L 4.828125 0 L 0.96875 0 L 0.96875 -15.46875 C 0.96875 -16.175781 1.140625 -16.820312 1.484375 -17.40625 C 1.828125 -18 2.289062 -18.46875 2.875 -18.8125 C 3.46875 -19.164062 4.117188 -19.34375 4.828125 -19.34375 Z M 4.828125 -15.46875 L 4.828125 -11.609375 L 16.4375 -11.609375 L 16.4375 -15.46875 Z M 4.828125 -15.46875 "/></g></g></g><g fill="#f7fafc" fill-opacity="1"><g transform="translate(176.669144, 155.164536)"><g><path d="M 20.296875 0 L 0.96875 0 L 0.96875 -3.875 L 8.703125 -3.875 L 8.703125 -15.46875 L 0.96875 -15.46875 L 0.96875 -19.34375 L 20.296875 -19.34375 L 20.296875 -15.46875 L 12.5625 -15.46875 L 12.5625 -3.875 L 20.296875 -3.875 Z M 20.296875 0 "/></g></g></g><g fill="#f7fafc" fill-opacity="1"><g transform="translate(197.453983, 155.164536)"><g><path d="M 4.828125 0 L 0.96875 0 L 0.96875 -17.40625 C 0.96875 -17.9375 1.15625 -18.390625 1.53125 -18.765625 C 1.914062 -19.148438 2.375 -19.34375 2.90625 -19.34375 C 3.4375 -19.34375 3.894531 -19.144531 4.28125 -18.75 L 16.4375 -6.59375 L 16.4375 -19.34375 L 20.296875 -19.34375 L 20.296875 -1.9375 C 20.296875 -1.40625 20.109375 -0.945312 19.734375 -0.5625 C 19.359375 -0.1875 18.90625 0 18.375 0 C 17.84375 0 17.382812 -0.191406 17 -0.578125 L 4.828125 -12.734375 Z M 4.828125 0 "/></g></g></g><g fill="#f7fafc" fill-opacity="1"><g transform="translate(218.238823, 155.164536)"><g><path d="M 16.4375 0 L 0.96875 0 L 0.96875 -19.34375 L 16.4375 -19.34375 C 17.144531 -19.34375 17.789062 -19.164062 18.375 -18.8125 C 18.96875 -18.46875 19.4375 -18 19.78125 -17.40625 C 20.125 -16.820312 20.296875 -16.175781 20.296875 -15.46875 L 20.296875 -3.875 C 20.296875 -3.15625 20.125 -2.503906 19.78125 -1.921875 C 19.4375 -1.335938 18.96875 -0.867188 18.375 -0.515625 C 17.789062 -0.171875 17.144531 0 16.4375 0 Z M 4.828125 -15.46875 L 4.828125 -3.875 L 16.4375 -3.875 L 16.4375 -15.46875 Z M 4.828125 -15.46875 "/></g></g></g><g fill="#f7fafc" fill-opacity="1"><g transform="translate(239.023662, 155.164536)"><g><path d="M 4.828125 -19.34375 L 16.4375 -19.34375 C 17.144531 -19.34375 17.789062 -19.164062 18.375 -18.8125 C 18.96875 -18.46875 19.4375 -18 19.78125 -17.40625 C 20.125 -16.820312 20.296875 -16.175781 20.296875 -15.46875 L 20.296875 0 L 16.4375 0 L 16.4375 -7.734375 L 4.828125 -7.734375 L 4.828125 0 L 0.96875 0 L 0.96875 -15.46875 C 0.96875 -16.175781 1.140625 -16.820312 1.484375 -17.40625 C 1.828125 -18 2.289062 -18.46875 2.875 -18.8125 C 3.46875 -19.164062 4.117188 -19.34375 4.828125 -19.34375 Z M 4.828125 -15.46875 L 4.828125 -11.609375 L 16.4375 -11.609375 L 16.4375 -15.46875 Z M 4.828125 -15.46875 "/></g></g></g><g fill="#f7fafc" fill-opacity="1"><g transform="translate(259.808502, 155.164536)"><g><path d="M 20.296875 -19.34375 L 20.296875 -15.46875 L 12.5625 -15.46875 L 12.5625 0 L 8.703125 0 L 8.703125 -15.46875 L 0.96875 -15.46875 L 0.96875 -19.34375 Z M 20.296875 -19.34375 "/></g></g></g><g fill="#f7fafc" fill-opacity="1"><g transform="translate(280.593333, 155.164536)"><g><path d="M 4.828125 -19.34375 L 16.4375 -19.34375 C 17.144531 -19.34375 17.789062 -19.164062 18.375 -18.8125 C 18.96875 -18.46875 19.4375 -18 19.78125 -17.40625 C 20.125 -16.820312 20.296875 -16.175781 20.296875 -15.46875 L 20.296875 0 L 16.4375 0 L 16.4375 -7.734375 L 4.828125 -7.734375 L 4.828125 0 L 0.96875 0 L 0.96875 -15.46875 C 0.96875 -16.175781 1.140625 -16.820312 1.484375 -17.40625 C 1.828125 -18 2.289062 -18.46875 2.875 -18.8125 C 3.46875 -19.164062 4.117188 -19.34375 4.828125 -19.34375 Z M 4.828125 -15.46875 L 4.828125 -11.609375 L 16.4375 -11.609375 L 16.4375 -15.46875 Z M 4.828125 -15.46875 "/></g></g></g></svg>