<svg xmlns="http://www.w3.org/2000/svg" xmlns:xlink="http://www.w3.org/1999/xlink" width="420" zoomAndPan="magnify" viewBox="0 0 315 314.999992" height="420" preserveAspectRatio="xMidYMid meet" version="1.0"><defs><clipPath id="e2490696be"><path d="M 7.375 66.058594 L 149 66.058594 L 149 249.058594 L 7.375 249.058594 Z M 7.375 66.058594 " clip-rule="nonzero"/></clipPath><clipPath id="396775ff40"><path d="M 166 66.058594 L 307.375 66.058594 L 307.375 249.058594 L 166 249.058594 Z M 166 66.058594 " clip-rule="nonzero"/></clipPath></defs><g clip-path="url(#e2490696be)"><path fill="#08121f" d="M 128.777344 210.632812 C 99.492188 210.632812 75.660156 186.800781 75.660156 157.511719 C 75.660156 128.222656 99.492188 104.390625 128.777344 104.390625 C 139.449219 104.390625 148.097656 95.746094 148.097656 85.074219 C 148.097656 74.40625 139.449219 65.757812 128.777344 65.757812 C 86.90625 65.757812 51.492188 93.953125 40.53125 132.355469 L 32.53125 132.355469 C 18.632812 132.355469 7.375 143.621094 7.375 157.511719 C 7.375 171.402344 18.632812 182.667969 32.53125 182.667969 L 40.53125 182.667969 C 51.492188 221.070312 86.90625 249.265625 128.777344 249.265625 C 139.449219 249.265625 148.097656 240.617188 148.097656 229.949219 C 148.097656 219.277344 139.449219 210.632812 128.777344 210.632812 Z M 128.777344 210.632812 " fill-opacity="1" fill-rule="nonzero"/></g><g clip-path="url(#396775ff40)"><path fill="#08121f" d="M 282.488281 132.355469 L 274.113281 132.355469 C 263.152344 93.953125 227.738281 65.757812 185.867188 65.757812 C 175.195312 65.757812 166.550781 74.40625 166.550781 85.074219 C 166.550781 95.746094 175.195312 104.390625 185.867188 104.390625 C 215.15625 104.390625 238.984375 128.222656 238.984375 157.511719 C 238.984375 186.800781 215.15625 210.632812 185.867188 210.632812 C 175.195312 210.632812 166.550781 219.277344 166.550781 229.949219 C 166.550781 240.617188 175.195312 249.265625 185.867188 249.265625 C 227.738281 249.265625 263.152344 221.070312 274.113281 182.667969 L 282.488281 182.667969 C 296.378906 182.667969 307.644531 171.40625 307.644531 157.511719 C 307.644531 143.621094 296.378906 132.355469 282.488281 132.355469 Z M 282.488281 132.355469 " fill-opacity="1" fill-rule="nonzero"/></g><path fill="#f7fafc" d="M 182.476562 182.660156 C 196.367188 182.660156 207.628906 171.402344 207.628906 157.511719 C 207.628906 143.621094 196.371094 132.355469 182.476562 132.355469 L 132.171875 132.355469 C 118.28125 132.355469 107.015625 143.617188 107.015625 157.511719 C 107.015625 171.40625 118.273438 182.660156 132.171875 182.660156 Z M 182.476562 182.660156 " fill-opacity="1" fill-rule="nonzero"/></svg>