<svg xmlns="http://www.w3.org/2000/svg" xmlns:xlink="http://www.w3.org/1999/xlink" width="420" zoomAndPan="magnify" viewBox="0 0 315 314.999992" height="420" preserveAspectRatio="xMidYMid meet" version="1.0"><defs><clipPath id="4e49c85fb9"><path d="M 11.074219 62.777344 L 149 62.777344 L 149 241.277344 L 11.074219 241.277344 Z M 11.074219 62.777344 " clip-rule="nonzero"/></clipPath><clipPath id="b7ab0b7076"><path d="M 166 62.777344 L 303.574219 62.777344 L 303.574219 241.277344 L 166 241.277344 Z M 166 62.777344 " clip-rule="nonzero"/></clipPath></defs><g clip-path="url(#4e49c85fb9)"><path fill="#0cdfb3" d="M 129.488281 203.785156 C 100.921875 203.785156 77.675781 180.542969 77.675781 151.972656 C 77.675781 123.40625 100.921875 100.164062 129.488281 100.164062 C 139.894531 100.164062 148.328125 91.730469 148.328125 81.320312 C 148.328125 70.914062 139.894531 62.480469 129.488281 62.480469 C 88.644531 62.480469 54.101562 89.980469 43.414062 127.4375 L 35.609375 127.4375 C 22.054688 127.4375 11.074219 138.425781 11.074219 151.972656 C 11.074219 165.523438 22.054688 176.511719 35.609375 176.511719 L 43.414062 176.511719 C 54.101562 213.964844 88.644531 241.46875 129.488281 241.46875 C 139.894531 241.46875 148.328125 233.035156 148.328125 222.625 C 148.328125 212.21875 139.894531 203.785156 129.488281 203.785156 Z M 129.488281 203.785156 " fill-opacity="1" fill-rule="nonzero"/></g><g clip-path="url(#b7ab0b7076)"><path fill="#0cdfb3" d="M 279.414062 127.4375 L 271.242188 127.4375 C 260.554688 89.980469 226.011719 62.480469 185.167969 62.480469 C 174.761719 62.480469 166.328125 70.914062 166.328125 81.320312 C 166.328125 91.730469 174.761719 100.164062 185.167969 100.164062 C 213.734375 100.164062 236.980469 123.40625 236.980469 151.972656 C 236.980469 180.542969 213.734375 203.785156 185.167969 203.785156 C 174.761719 203.785156 166.328125 212.21875 166.328125 222.625 C 166.328125 233.035156 174.761719 241.46875 185.167969 241.46875 C 226.011719 241.46875 260.554688 213.964844 271.242188 176.511719 L 279.414062 176.511719 C 292.960938 176.511719 303.949219 165.527344 303.949219 151.972656 C 303.949219 138.425781 292.960938 127.4375 279.414062 127.4375 Z M 279.414062 127.4375 " fill-opacity="1" fill-rule="nonzero"/></g><path fill="#f7fafc" d="M 181.859375 176.503906 C 195.410156 176.503906 206.398438 165.523438 206.398438 151.972656 C 206.398438 138.425781 195.414062 127.4375 181.859375 127.4375 L 132.796875 127.4375 C 119.246094 127.4375 108.257812 138.421875 108.257812 151.972656 C 108.257812 165.527344 119.242188 176.503906 132.796875 176.503906 Z M 181.859375 176.503906 " fill-opacity="1" fill-rule="nonzero"/></svg>